<?xml version="1.0" encoding="UTF-8" standalone="no"?>
<!-- Created with Inkscape (http://www.inkscape.org/) -->

<svg
   xmlns:dc="http://purl.org/dc/elements/1.1/"
   xmlns:cc="http://creativecommons.org/ns#"
   xmlns:rdf="http://www.w3.org/1999/02/22-rdf-syntax-ns#"
   xmlns:svg="http://www.w3.org/2000/svg"
   xmlns="http://www.w3.org/2000/svg"
   xmlns:sodipodi="http://sodipodi.sourceforge.net/DTD/sodipodi-0.dtd"
   xmlns:inkscape="http://www.inkscape.org/namespaces/inkscape"
   width="297mm"
   height="210mm"
   id="svg7519"
   version="1.1"
   inkscape:version="0.48.5 r10040"
   sodipodi:docname="030_tuple_descriptor_2.svg">
  <defs
     id="defs7521">
    <marker
       inkscape:stockid="Arrow1Lend"
       orient="auto"
       refY="0.0"
       refX="0.0"
       id="Arrow1Lend"
       style="overflow:visible;">
      <path
         id="path4044"
         d="M 0.0,0.0 L 5.0,-5.0 L -12.5,0.0 L 5.0,5.0 L 0.0,0.0 z "
         style="fill-rule:evenodd;stroke:#000000;stroke-width:1.0pt;"
         transform="scale(0.8) rotate(180) translate(12.5,0)" />
    </marker>
    <marker
       inkscape:stockid="Arrow2Lend"
       orient="auto"
       refY="0.0"
       refX="0.0"
       id="Arrow2Lend"
       style="overflow:visible;">
      <path
         id="path4062"
         style="fill-rule:evenodd;stroke-width:0.62500000;stroke-linejoin:round;"
         d="M 8.7185878,4.0337352 L -2.2072895,0.016013256 L 8.7185884,-4.0017078 C 6.9730900,-1.6296469 6.9831476,1.6157441 8.7185878,4.0337352 z "
         transform="scale(1.1) rotate(180) translate(1,0)" />
    </marker>
    <marker
       inkscape:stockid="Arrow2Mend"
       orient="auto"
       refY="0"
       refX="0"
       id="Arrow2Mend"
       style="overflow:visible">
      <path
         inkscape:connector-curvature="0"
         id="path18012"
         style="fill-rule:evenodd;stroke-width:0.625;stroke-linejoin:round"
         d="M 8.7185878,4.0337352 -2.2072895,0.01601326 8.7185884,-4.0017078 c -1.7454984,2.3720609 -1.7354408,5.6174519 -6e-7,8.035443 z"
         transform="scale(-0.6,-0.6)" />
    </marker>
  </defs>
  <sodipodi:namedview
     inkscape:document-units="mm"
     pagecolor="#ffffff"
     bordercolor="#666666"
     borderopacity="1.0"
     inkscape:pageopacity="0.0"
     inkscape:pageshadow="2"
     inkscape:zoom="1.2279853"
     inkscape:cx="328.05348"
     inkscape:cy="329.18435"
     inkscape:current-layer="layer1"
     id="namedview7523"
     showgrid="true"
     inkscape:window-width="1920"
     inkscape:window-height="1025"
     inkscape:window-x="-2"
     inkscape:window-y="-3"
     inkscape:window-maximized="1">
    <inkscape:grid
       type="xygrid"
       id="grid7783" />
  </sodipodi:namedview>
  <metadata
     id="metadata7525">
    <rdf:RDF>
      <cc:Work
         rdf:about="">
        <dc:format>image/svg+xml</dc:format>
        <dc:type
           rdf:resource="http://purl.org/dc/dcmitype/StillImage" />
        <dc:title></dc:title>
      </cc:Work>
    </rdf:RDF>
  </metadata>
  <g
     inkscape:label="Layer 1"
     inkscape:groupmode="layer"
     id="layer1">
    <rect
       style="fill:#f79999;fill-opacity:1;stroke:none"
       id="rect6353-9-6-6-5-9-2-0-8"
       width="50"
       height="74.711929"
       x="294.99997"
       y="359.3443" />
    <path
       style="fill:none;stroke:#000000;stroke-width:0.99999863px;stroke-linecap:butt;stroke-linejoin:miter;stroke-opacity:1"
       d="m 519.99537,218.59477 0,25.2498"
       id="path5377-5-4-3-5-2-1-7-5-9"
       inkscape:connector-curvature="0" />
    <rect
       style="fill:#dcdcdc;fill-opacity:1;stroke:none"
       id="rect6353-9-6-6-5-9-2-7-1-3-4"
       width="75"
       height="24.999971"
       x="520.00458"
       y="218.84467" />
    <path
       style="fill:none;stroke:#8c8c8c;stroke-width:0.99999851px;stroke-linecap:butt;stroke-linejoin:miter;stroke-opacity:1"
       d="m 544.99999,218.75427 0,25.0904"
       id="path5377-58-8-0-3-4-8-5-9-4-1"
       inkscape:connector-curvature="0" />
    <rect
       style="fill:#f7f799;fill-opacity:1;stroke:none"
       id="rect6353-9-3-8-8"
       width="200"
       height="25.000008"
       x="319.99997"
       y="218.84473" />
    <rect
       style="fill:#99e2f7;fill-opacity:1;stroke:none"
       id="rect6353-3-0-1"
       width="100.00035"
       height="24.999998"
       x="219.99998"
       y="218.84473" />
    <path
       style="fill:none;stroke:#8c8c8c;stroke-width:0.99999851px;stroke-linecap:butt;stroke-linejoin:miter;stroke-opacity:1"
       d="m 569.99999,218.75427 0,25.0904"
       id="path5377-58-8-0-3-4-7-4-2-6-5"
       inkscape:connector-curvature="0" />
    <path
       style="fill:none;stroke:#000000;stroke-width:0.99999881px;stroke-linecap:butt;stroke-linejoin:miter;stroke-opacity:1"
       d="m 594.99998,218.84467 -374.99998,0 c -3e-5,8.61951 -2e-5,17.58348 -2e-5,25 l 375,0"
       id="path5339-57-5-7"
       inkscape:connector-curvature="0"
       sodipodi:nodetypes="cccc" />
    <path
       style="fill:none;stroke:#000000;stroke-width:0.99999863px;stroke-linecap:butt;stroke-linejoin:miter;stroke-opacity:1"
       d="m 270,218.84467 0,25.24981"
       id="path5377-0-4-5-0"
       inkscape:connector-curvature="0" />
    <path
       style="fill:none;stroke:#000000;stroke-width:0.99999863px;stroke-linecap:butt;stroke-linejoin:miter;stroke-opacity:1"
       d="m 319.99541,218.84467 0,25.24981"
       id="path5377-5-44-5-8"
       inkscape:connector-curvature="0" />
    <path
       style="fill:none;stroke:#000000;stroke-width:0.99999863px;stroke-linecap:butt;stroke-linejoin:miter;stroke-opacity:1"
       d="m 369.99544,218.84467 0,25"
       id="path5377-0-2-2-9-5"
       inkscape:connector-curvature="0" />
    <path
       style="fill:none;stroke:#000000;stroke-width:0.99999863px;stroke-linecap:butt;stroke-linejoin:miter;stroke-opacity:1"
       d="m 419.99548,218.84467 0,25"
       id="path5377-2-7-5-5"
       inkscape:connector-curvature="0" />
    <path
       style="fill:none;stroke:#000000;stroke-width:0.99999863px;stroke-linecap:butt;stroke-linejoin:miter;stroke-opacity:1"
       d="m 469.99551,218.84467 0,25"
       id="path5377-0-7-7-6-2"
       inkscape:connector-curvature="0" />
    <path
       style="fill:none;stroke:#000000;stroke-width:0.99999863px;stroke-linecap:butt;stroke-linejoin:miter;stroke-opacity:1"
       d="m 594.99993,218.59487 0,25.2498"
       id="path5377-5-44-5-8-5-3-0-5-0"
       inkscape:connector-curvature="0" />
    <path
       style="fill:none;stroke:#000000;stroke-width:0.99999863px;stroke-linecap:butt;stroke-linejoin:miter;stroke-opacity:1"
       d="m 519.99093,218.84467 0,25"
       id="path5377-5-9-69-0-1"
       inkscape:connector-curvature="0" />
    <path
       style="fill:none;stroke:#000000;stroke-width:0.99999863px;stroke-linecap:butt;stroke-linejoin:miter;stroke-opacity:1"
       d="m 244.99998,218.84467 0,25"
       id="path5377-58-8-0-3"
       inkscape:connector-curvature="0" />
    <path
       style="fill:none;stroke:#000000;stroke-width:0.99999863px;stroke-linecap:butt;stroke-linejoin:miter;stroke-opacity:1"
       d="m 295.00002,218.84467 0,25.24981"
       id="path5377-0-6-6-0-8"
       inkscape:connector-curvature="0" />
    <path
       style="fill:none;stroke:#000000;stroke-width:0.99999863px;stroke-linecap:butt;stroke-linejoin:miter;stroke-opacity:1"
       d="m 344.99543,218.84467 0,25.24981"
       id="path5377-5-4-3-5-2"
       inkscape:connector-curvature="0" />
    <path
       style="fill:none;stroke:#000000;stroke-width:0.99999863px;stroke-linecap:butt;stroke-linejoin:miter;stroke-opacity:1"
       d="m 394.99546,218.84467 0,25"
       id="path5377-0-2-5-6-6-0"
       inkscape:connector-curvature="0" />
    <path
       style="fill:none;stroke:#000000;stroke-width:0.99999863px;stroke-linecap:butt;stroke-linejoin:miter;stroke-opacity:1"
       d="m 444.9955,218.84467 0,25"
       id="path5377-2-9-2-3-5"
       inkscape:connector-curvature="0" />
    <path
       style="fill:none;stroke:#000000;stroke-width:0.99999863px;stroke-linecap:butt;stroke-linejoin:miter;stroke-opacity:1"
       d="m 494.99553,218.84467 0,25"
       id="path5377-0-7-4-6-3-7"
       inkscape:connector-curvature="0" />
    <text
       xml:space="preserve"
       style="font-size:20.00003052px;font-style:normal;font-weight:normal;line-height:125%;letter-spacing:0px;word-spacing:0px;fill:#000000;fill-opacity:1;stroke:none;font-family:Sans"
       x="11.42353"
       y="313.84558"
       id="text6489-1-2-7"
       sodipodi:linespacing="125%"
       transform="matrix(0.70710678,-0.70710678,0.70710678,0.70710678,0,0)"><tspan
         sodipodi:role="line"
         id="tspan6491-0-0-6"
         x="11.42353"
         y="313.84558">nattrs</tspan></text>
    <text
       xml:space="preserve"
       style="font-size:20.00003052px;font-style:normal;font-weight:normal;line-height:125%;letter-spacing:0px;word-spacing:0px;fill:#000000;fill-opacity:1;stroke:none;font-family:Sans"
       x="82.134201"
       y="384.55624"
       id="text6489-8-7-2-1"
       sodipodi:linespacing="125%"
       transform="matrix(0.70710678,-0.70710678,0.70710678,0.70710678,0,0)"><tspan
         sodipodi:role="line"
         id="tspan6491-6-4-1-0"
         x="82.134201"
         y="384.55624">attrs[]</tspan></text>
    <path
       style="fill:none;stroke:#000000;stroke-width:0.99999863px;stroke-linecap:butt;stroke-linejoin:miter;stroke-opacity:1"
       d="m 445.00002,359.09446 0,25.24981"
       id="path5377-5-4-3-5-2-1"
       inkscape:connector-curvature="0" />
    <path
       style="fill:none;stroke:#000000;stroke-width:0.99999863px;stroke-linecap:butt;stroke-linejoin:miter;stroke-opacity:1"
       d="m 445.00458,384.09448 0,25.24981"
       id="path5377-5-4-3-5-2-1-7"
       inkscape:connector-curvature="0" />
    <rect
       style="fill:#99f7b5;fill-opacity:1;stroke:none"
       id="rect6353-9-6-3-3-7-3-8"
       width="25"
       height="24.980873"
       x="420.00455"
       y="359.11359" />
    <rect
       style="fill:#dcdcdc;fill-opacity:1;stroke:none"
       id="rect6353-9-6-6-5-9-2"
       width="75"
       height="74.98085"
       x="220.00458"
       y="359.3634" />
    <rect
       style="fill:#dcdcdc;fill-opacity:1;stroke:none"
       id="rect6353-9-6-6-5-9-2-7"
       width="75"
       height="74.98085"
       x="345.00916"
       y="359.63232" />
    <path
       style="fill:none;stroke:#000000;stroke-width:0.99999875px;stroke-linecap:butt;stroke-linejoin:miter;stroke-opacity:1"
       d="m 520.00458,359.34427 -299.99998,0 c -2e-5,8.61951 -1e-5,17.58348 -1e-5,25 l 299.99999,0"
       id="path5339-57-5-7-4"
       inkscape:connector-curvature="0"
       sodipodi:nodetypes="cccc" />
    <path
       style="fill:none;stroke:#000000;stroke-width:0.99999863px;stroke-linecap:butt;stroke-linejoin:miter;stroke-opacity:1"
       d="m 320.00002,359.09446 0,25.24981"
       id="path5377-0-4-5-0-9"
       inkscape:connector-curvature="0" />
    <path
       style="fill:none;stroke:#000000;stroke-width:0.99999863px;stroke-linecap:butt;stroke-linejoin:miter;stroke-opacity:1"
       d="m 420,359.09446 0,25.24981"
       id="path5377-5-44-5-8-5"
       inkscape:connector-curvature="0" />
    <path
       style="fill:none;stroke:#000000;stroke-width:0.99999863px;stroke-linecap:butt;stroke-linejoin:miter;stroke-opacity:1"
       d="m 295,359.09446 0,25"
       id="path5377-58-8-0-3-4"
       inkscape:connector-curvature="0" />
    <text
       xml:space="preserve"
       style="font-size:20.00003052px;font-style:normal;font-weight:normal;line-height:125%;letter-spacing:0px;word-spacing:0px;fill:#000000;fill-opacity:1;stroke:none;font-family:Sans"
       x="-34.715076"
       y="466.05014"
       id="text6489-8-7-2-1-4"
       sodipodi:linespacing="125%"
       transform="matrix(0.70710678,-0.70710678,0.70710678,0.70710678,0,0)"><tspan
         sodipodi:role="line"
         id="tspan6491-6-4-1-0-6"
         x="-34.715076"
         y="466.05014">attlen</tspan></text>
    <text
       xml:space="preserve"
       style="font-size:20.00003052px;font-style:normal;font-weight:normal;line-height:125%;letter-spacing:0px;word-spacing:0px;fill:#000000;fill-opacity:1;stroke:none;font-family:Sans"
       x="53.676556"
       y="554.44177"
       id="text6489-8-1-0-0-3-1"
       sodipodi:linespacing="125%"
       transform="matrix(0.70710678,-0.70710678,0.70710678,0.70710678,0,0)"><tspan
         sodipodi:role="line"
         x="53.676556"
         y="554.44177"
         id="tspan4807">attalign</tspan></text>
    <path
       style="fill:none;stroke:#000000;stroke-width:0.99999863px;stroke-linecap:butt;stroke-linejoin:miter;stroke-opacity:1"
       d="m 445,409.0754 0,25.24981"
       id="path5377-5-4-3-5-2-1-7-2"
       inkscape:connector-curvature="0" />
    <rect
       style="fill:#99f7b6;fill-opacity:1;stroke:none"
       id="rect6353-9-6-3-3-7-3-8-1"
       width="25"
       height="24.980873"
       x="420.00912"
       y="384.11359" />
    <path
       style="fill:none;stroke:#8c8c8c;stroke-width:0.99999857px;stroke-linecap:butt;stroke-linejoin:miter;stroke-opacity:1"
       d="m 270.00002,359.34427 0,75.00003"
       id="path5377-58-8-0-3-4-7"
       inkscape:connector-curvature="0" />
    <path
       style="fill:none;stroke:#8c8c8c;stroke-width:0.99999857px;stroke-linecap:butt;stroke-linejoin:miter;stroke-opacity:1"
       d="m 245.00002,359.34427 0,75.00003"
       id="path5377-58-8-0-3-4-8"
       inkscape:connector-curvature="0" />
    <rect
       style="fill:#dcdcdc;fill-opacity:1;stroke:none"
       id="rect6353-9-6-6-5-9-2-7-1"
       width="75"
       height="74.98085"
       x="445.01373"
       y="359.63239" />
    <path
       style="fill:none;stroke:#8c8c8c;stroke-width:0.99999857px;stroke-linecap:butt;stroke-linejoin:miter;stroke-opacity:1"
       d="m 470.0092,359.61318 0,75.00008"
       id="path5377-58-8-0-3-4-8-5-9"
       inkscape:connector-curvature="0" />
    <path
       style="fill:none;stroke:#8c8c8c;stroke-width:0.99999857px;stroke-linecap:butt;stroke-linejoin:miter;stroke-opacity:1"
       d="m 495.0092,359.61318 0,75.00008"
       id="path5377-58-8-0-3-4-7-4-2"
       inkscape:connector-curvature="0" />
    <path
       style="fill:none;stroke:#8c8c8c;stroke-width:0.99999857px;stroke-linecap:butt;stroke-linejoin:miter;stroke-opacity:1"
       d="m 370.00462,359.61316 0,75.00003"
       id="path5377-58-8-0-3-4-8-5"
       inkscape:connector-curvature="0" />
    <path
       style="fill:none;stroke:#8c8c8c;stroke-width:0.99999857px;stroke-linecap:butt;stroke-linejoin:miter;stroke-opacity:1"
       d="m 395.00462,359.61316 0,75.00003"
       id="path5377-58-8-0-3-4-7-4"
       inkscape:connector-curvature="0" />
    <path
       style="fill:none;stroke:#000000;stroke-width:0.99999881px;stroke-linecap:butt;stroke-linejoin:miter;stroke-opacity:1"
       d="m 520.00458,384.34429 -299.9907,0 c -2e-5,8.61951 -2e-5,17.58348 -2e-5,25 l 299.99072,0"
       id="path5339-57-5-7-4-0"
       inkscape:connector-curvature="0"
       sodipodi:nodetypes="cccc" />
    <path
       style="fill:none;stroke:#000000;stroke-width:0.99999863px;stroke-linecap:butt;stroke-linejoin:miter;stroke-opacity:1"
       d="m 320.00458,384.09448 0,25.24981"
       id="path5377-0-4-5-0-9-8"
       inkscape:connector-curvature="0" />
    <path
       style="fill:none;stroke:#000000;stroke-width:0.99999863px;stroke-linecap:butt;stroke-linejoin:miter;stroke-opacity:1"
       d="m 420.00456,384.09448 0,25.24981"
       id="path5377-5-44-5-8-5-3"
       inkscape:connector-curvature="0" />
    <path
       style="fill:none;stroke:#000000;stroke-width:0.99999863px;stroke-linecap:butt;stroke-linejoin:miter;stroke-opacity:1"
       d="m 295.00456,384.09448 0,25"
       id="path5377-58-8-0-3-4-1"
       inkscape:connector-curvature="0" />
    <path
       style="fill:none;stroke:#000000;stroke-width:0.99999863px;stroke-linecap:butt;stroke-linejoin:miter;stroke-opacity:1"
       d="m 520.00458,359.09448 0,25.24981"
       id="path5377-5-44-5-8-5-5"
       inkscape:connector-curvature="0" />
    <rect
       style="fill:#99f7b5;fill-opacity:1;stroke:none"
       id="rect6353-9-6-3-3-7-3-8-1-0"
       width="25"
       height="24.980873"
       x="420.00455"
       y="409.09448" />
    <path
       style="fill:none;stroke:#000000;stroke-width:0.99999863px;stroke-linecap:butt;stroke-linejoin:miter;stroke-opacity:1"
       d="m 520.00914,384.0945 0,25.24981"
       id="path5377-5-44-5-8-5-3-0"
       inkscape:connector-curvature="0" />
    <path
       style="fill:none;stroke:#000000;stroke-width:0.99999869px;stroke-linecap:butt;stroke-linejoin:miter;stroke-opacity:1"
       d="m 520.00458,409.32521 -300.00001,0 c -2e-5,8.61951 -2e-5,17.58348 -2e-5,25 l 300.00003,0"
       id="path5339-57-5-7-4-0-0"
       inkscape:connector-curvature="0"
       sodipodi:nodetypes="cccc" />
    <path
       style="fill:none;stroke:#000000;stroke-width:0.99999863px;stroke-linecap:butt;stroke-linejoin:miter;stroke-opacity:1"
       d="m 320,409.0754 0,25.24981"
       id="path5377-0-4-5-0-9-8-9"
       inkscape:connector-curvature="0" />
    <path
       style="fill:none;stroke:#000000;stroke-width:0.99999863px;stroke-linecap:butt;stroke-linejoin:miter;stroke-opacity:1"
       d="m 419.99998,409.0754 0,25.24981"
       id="path5377-5-44-5-8-5-3-3"
       inkscape:connector-curvature="0" />
    <path
       style="fill:none;stroke:#000000;stroke-width:0.99999863px;stroke-linecap:butt;stroke-linejoin:miter;stroke-opacity:1"
       d="m 294.99998,409.0754 0,25"
       id="path5377-58-8-0-3-4-1-2"
       inkscape:connector-curvature="0" />
    <text
       xml:space="preserve"
       style="font-size:10px;font-style:normal;font-weight:normal;line-height:125%;letter-spacing:0px;word-spacing:0px;fill:#000000;fill-opacity:1;stroke:none;font-family:Sans"
       x="210.00458"
       y="379.3443"
       id="text5152"
       sodipodi:linespacing="125%"><tspan
         sodipodi:role="line"
         id="tspan5154"
         x="210.00458"
         y="379.3443"
         style="font-style:italic;font-variant:normal;font-weight:normal;font-stretch:normal;font-family:Serif;-inkscape-font-specification:Serif Italic">1</tspan></text>
    <text
       xml:space="preserve"
       style="font-size:10px;font-style:normal;font-weight:normal;line-height:125%;letter-spacing:0px;word-spacing:0px;fill:#000000;fill-opacity:1;stroke:none;font-family:Sans"
       x="210.00458"
       y="404.3443"
       id="text5152-3"
       sodipodi:linespacing="125%"><tspan
         sodipodi:role="line"
         id="tspan5154-4"
         x="210.00458"
         y="404.3443"
         style="font-style:italic;font-variant:normal;font-weight:normal;font-stretch:normal;font-family:Serif;-inkscape-font-specification:Serif Italic">2</tspan></text>
    <text
       xml:space="preserve"
       style="font-size:10px;font-style:normal;font-weight:normal;line-height:125%;letter-spacing:0px;word-spacing:0px;fill:#000000;fill-opacity:1;stroke:none;font-family:Sans"
       x="210.00458"
       y="429.3443"
       id="text5152-3-0"
       sodipodi:linespacing="125%"><tspan
         sodipodi:role="line"
         id="tspan5154-4-8"
         x="210.00458"
         y="429.3443"
         style="font-style:italic;font-variant:normal;font-weight:normal;font-stretch:normal;font-family:Serif;-inkscape-font-specification:Serif Italic">3</tspan></text>
    <text
       xml:space="preserve"
       style="font-size:10px;font-style:normal;font-weight:normal;line-height:125%;letter-spacing:0px;word-spacing:0px;fill:#000000;fill-opacity:1;stroke:none;font-family:Sans"
       x="205.00458"
       y="454.3443"
       id="text5152-3-0-3"
       sodipodi:linespacing="125%"><tspan
         sodipodi:role="line"
         id="tspan5154-4-8-2"
         x="205.00458"
         y="454.3443"
         style="font-style:italic;font-variant:normal;font-weight:normal;font-stretch:normal;font-family:Serif;-inkscape-font-specification:Serif Italic">...</tspan></text>
    <text
       xml:space="preserve"
       style="font-size:10px;font-style:normal;font-weight:normal;line-height:125%;letter-spacing:0px;word-spacing:0px;fill:#000000;fill-opacity:1;stroke:none;font-family:Sans"
       x="182.00459"
       y="489.61337"
       id="text5152-3-0-37"
       sodipodi:linespacing="125%"><tspan
         sodipodi:role="line"
         id="tspan5154-4-8-0"
         x="182.00459"
         y="489.61337"
         style="font-style:italic;font-variant:normal;font-weight:normal;font-stretch:normal;font-family:Serif;-inkscape-font-specification:Serif Italic">nattrs</tspan></text>
    <g
       id="g5287-4-8"
       transform="translate(85.00458,-502.01785)">
      <g
         transform="translate(0,-2.9999976)"
         style="stroke:#ffffff;stroke-opacity:1"
         id="g5262-1-7">
        <path
           style="fill:#ffffff;fill-opacity:1;stroke:#ffffff;stroke-width:1;stroke-linecap:butt;stroke-linejoin:miter;stroke-miterlimit:4;stroke-opacity:1;stroke-dasharray:none"
           d="m 167,949.36214 c 0,0 -5,-6 -5,-10 0,-11 10,-15 10,-25 0,-10 -10,-15 -10,-25 0,-10 10,-15 10,-25 0,-5 -5,-10 -5,-10 l 10,0 c 0,0 5,5 5,10 0,10 -10,15 -10,25 0,10 10,15 10,25 0,10 -10,14 -10,25 0,4 5,10 5,10"
           id="path5150-8-5"
           inkscape:connector-curvature="0"
           sodipodi:nodetypes="cccccccccccc" />
      </g>
      <g
         style="fill:none"
         id="g5262-2-5-5"
         transform="translate(0,-2.9999976)">
        <path
           style="fill:none;stroke:#000000;stroke-width:1;stroke-linecap:butt;stroke-linejoin:miter;stroke-miterlimit:4;stroke-opacity:1;stroke-dasharray:none"
           d="m 167,949.36214 c 0,0 -5,-6 -5,-10 0,-11 10,-15 10,-25 0,-10 -10,-15 -10,-25 0,-10 10,-15 10,-25 0,-5 -5,-10 -5,-10 m 10,0 c 0,0 5,5 5,10 0,10 -10,15 -10,25 0,10 10,15 10,25 0,10 -10,14 -10,25 0,4 5,10 5,10"
           id="path5150-1-9-7"
           inkscape:connector-curvature="0"
           sodipodi:nodetypes="cccccccccccc" />
      </g>
    </g>
    <g
       id="g5287-4-8-9"
       transform="translate(210.00918,-501.74896)">
      <g
         transform="translate(0,-2.9999976)"
         style="stroke:#ffffff;stroke-opacity:1"
         id="g5262-1-7-7">
        <path
           style="fill:#ffffff;fill-opacity:1;stroke:#ffffff;stroke-width:1;stroke-linecap:butt;stroke-linejoin:miter;stroke-miterlimit:4;stroke-opacity:1;stroke-dasharray:none"
           d="m 167,949.36214 c 0,0 -5,-6 -5,-10 0,-11 10,-15 10,-25 0,-10 -10,-15 -10,-25 0,-10 10,-15 10,-25 0,-5 -5,-10 -5,-10 l 10,0 c 0,0 5,5 5,10 0,10 -10,15 -10,25 0,10 10,15 10,25 0,10 -10,14 -10,25 0,4 5,10 5,10"
           id="path5150-8-5-6"
           inkscape:connector-curvature="0"
           sodipodi:nodetypes="cccccccccccc" />
      </g>
      <g
         style="fill:none"
         id="g5262-2-5-5-0"
         transform="translate(0,-2.9999976)">
        <path
           style="fill:none;stroke:#000000;stroke-width:1;stroke-linecap:butt;stroke-linejoin:miter;stroke-miterlimit:4;stroke-opacity:1;stroke-dasharray:none"
           d="m 167,949.36214 c 0,0 -5,-6 -5,-10 0,-11 10,-15 10,-25 0,-10 -10,-15 -10,-25 0,-10 10,-15 10,-25 0,-5 -5,-10 -5,-10 m 10,0 c 0,0 5,5 5,10 0,10 -10,15 -10,25 0,10 10,15 10,25 0,10 -10,14 -10,25 0,4 5,10 5,10"
           id="path5150-1-9-7-7"
           inkscape:connector-curvature="0"
           sodipodi:nodetypes="cccccccccccc" />
      </g>
    </g>
    <path
       style="fill:none;stroke:#000000;stroke-width:0.99999863px;stroke-linecap:butt;stroke-linejoin:miter;stroke-opacity:1"
       d="m 345.00458,359.36335 0,74.98094"
       id="path5377-58-8-0-3-4-3-3"
       inkscape:connector-curvature="0" />
    <path
       style="fill:none;stroke:#000000;stroke-width:0.99999863px;stroke-linecap:butt;stroke-linejoin:miter;stroke-opacity:1"
       d="m 520.00456,409.07542 0,25.24984"
       id="path5377-5-44-5-8-5-3-3-8"
       inkscape:connector-curvature="0" />
    <path
       style="fill:none;stroke:#000000;stroke-width:0.99999863px;stroke-linecap:butt;stroke-linejoin:miter;stroke-opacity:1"
       d="m 445.00916,359.36337 0,74.98099"
       id="path5377-58-8-0-3-4-3-3-2"
       inkscape:connector-curvature="0" />
    <g
       id="g5287-4-8-9-6"
       transform="translate(310.01376,-501.74894)">
      <g
         transform="translate(0,-2.9999976)"
         style="stroke:#ffffff;stroke-opacity:1"
         id="g5262-1-7-7-3">
        <path
           style="fill:#ffffff;fill-opacity:1;stroke:#ffffff;stroke-width:1;stroke-linecap:butt;stroke-linejoin:miter;stroke-miterlimit:4;stroke-opacity:1;stroke-dasharray:none"
           d="m 167,949.36214 c 0,0 -5,-6 -5,-10 0,-11 10,-15 10,-25 0,-10 -10,-15 -10,-25 0,-10 10,-15 10,-25 0,-5 -5,-10 -5,-10 l 10,0 c 0,0 5,5 5,10 0,10 -10,15 -10,25 0,10 10,15 10,25 0,10 -10,14 -10,25 0,4 5,10 5,10"
           id="path5150-8-5-6-4"
           inkscape:connector-curvature="0"
           sodipodi:nodetypes="cccccccccccc" />
      </g>
      <g
         style="fill:none"
         id="g5262-2-5-5-0-3"
         transform="translate(0,-2.9999976)">
        <path
           style="fill:none;stroke:#000000;stroke-width:1;stroke-linecap:butt;stroke-linejoin:miter;stroke-miterlimit:4;stroke-opacity:1;stroke-dasharray:none"
           d="m 167,949.36214 c 0,0 -5,-6 -5,-10 0,-11 10,-15 10,-25 0,-10 -10,-15 -10,-25 0,-10 10,-15 10,-25 0,-5 -5,-10 -5,-10 m 10,0 c 0,0 5,5 5,10 0,10 -10,15 -10,25 0,10 10,15 10,25 0,10 -10,14 -10,25 0,4 5,10 5,10"
           id="path5150-1-9-7-7-5"
           inkscape:connector-curvature="0"
           sodipodi:nodetypes="cccccccccccc" />
      </g>
    </g>
    <rect
       style="fill:#f79999;fill-opacity:1;stroke:none"
       id="rect6353-9-6-6-5-9-2-0-8-0"
       width="50"
       height="24.999958"
       x="294.99536"
       y="469.34433" />
    <path
       style="fill:none;stroke:#000000;stroke-width:0.99999863px;stroke-linecap:butt;stroke-linejoin:miter;stroke-opacity:1"
       d="m 444.99996,469.09439 0,25.2498"
       id="path5377-5-4-3-5-2-1-7-5"
       inkscape:connector-curvature="0" />
    <rect
       style="fill:#dcdcdc;fill-opacity:1;stroke:none"
       id="rect6353-9-6-6-5-9-2-6"
       width="75"
       height="24.999989"
       x="219.99995"
       y="469.34433" />
    <rect
       style="fill:#dcdcdc;fill-opacity:1;stroke:none"
       id="rect6353-9-6-6-5-9-2-7-8"
       width="75"
       height="24.999958"
       x="345.00455"
       y="469.34433" />
    <rect
       style="fill:#99f7b5;fill-opacity:1;stroke:none"
       id="rect6353-9-6-3-3-7-3-8-1-4"
       width="25"
       height="24.980873"
       x="420.00452"
       y="469.11349" />
    <path
       style="fill:none;stroke:#8c8c8c;stroke-width:0.99999851px;stroke-linecap:butt;stroke-linejoin:miter;stroke-opacity:1"
       d="m 269.9954,469.16399 0,25.0904"
       id="path5377-58-8-0-3-4-7-9"
       inkscape:connector-curvature="0" />
    <path
       style="fill:none;stroke:#8c8c8c;stroke-width:0.99999851px;stroke-linecap:butt;stroke-linejoin:miter;stroke-opacity:1"
       d="m 244.9954,469.16399 0,25.0904"
       id="path5377-58-8-0-3-4-8-6"
       inkscape:connector-curvature="0" />
    <rect
       style="fill:#dcdcdc;fill-opacity:1;stroke:none"
       id="rect6353-9-6-6-5-9-2-7-1-3"
       width="75"
       height="24.999971"
       x="445.00916"
       y="469.34433" />
    <path
       style="fill:none;stroke:#8c8c8c;stroke-width:0.99999851px;stroke-linecap:butt;stroke-linejoin:miter;stroke-opacity:1"
       d="m 470.00458,469.25389 0,25.0904"
       id="path5377-58-8-0-3-4-8-5-9-4"
       inkscape:connector-curvature="0" />
    <path
       style="fill:none;stroke:#8c8c8c;stroke-width:0.99999851px;stroke-linecap:butt;stroke-linejoin:miter;stroke-opacity:1"
       d="m 495.00458,469.25389 0,25.0904"
       id="path5377-58-8-0-3-4-7-4-2-6"
       inkscape:connector-curvature="0" />
    <path
       style="fill:none;stroke:#8c8c8c;stroke-width:0.99999851px;stroke-linecap:butt;stroke-linejoin:miter;stroke-opacity:1"
       d="m 395,469.25389 0,25.0903"
       id="path5377-58-8-0-3-4-7-4-9"
       inkscape:connector-curvature="0" />
    <path
       style="fill:none;stroke:#8c8c8c;stroke-width:0.99999851px;stroke-linecap:butt;stroke-linejoin:miter;stroke-opacity:1"
       d="m 370,469.25389 0,25.0903"
       id="path5377-58-8-0-3-4-8-5-8"
       inkscape:connector-curvature="0" />
    <path
       style="fill:none;stroke:#000000;stroke-width:0.99999881px;stroke-linecap:butt;stroke-linejoin:miter;stroke-opacity:1"
       d="m 519.99996,469.34419 -299.9907,0 c -2e-5,8.6196 -2e-5,17.5835 -2e-5,25 l 299.99072,0"
       id="path5339-57-5-7-4-0-3"
       inkscape:connector-curvature="0"
       sodipodi:nodetypes="cccc" />
    <path
       style="fill:none;stroke:#000000;stroke-width:0.99999863px;stroke-linecap:butt;stroke-linejoin:miter;stroke-opacity:1"
       d="m 319.99996,469.09439 0,25.2498"
       id="path5377-0-4-5-0-9-8-8"
       inkscape:connector-curvature="0" />
    <path
       style="fill:none;stroke:#000000;stroke-width:0.99999863px;stroke-linecap:butt;stroke-linejoin:miter;stroke-opacity:1"
       d="m 419.99994,469.09439 0,25.2498"
       id="path5377-5-44-5-8-5-3-9"
       inkscape:connector-curvature="0" />
    <path
       style="fill:none;stroke:#000000;stroke-width:0.99999863px;stroke-linecap:butt;stroke-linejoin:miter;stroke-opacity:1"
       d="m 294.99994,469.09439 0,25"
       id="path5377-58-8-0-3-4-1-8"
       inkscape:connector-curvature="0" />
    <path
       style="fill:none;stroke:#000000;stroke-width:0.99999863px;stroke-linecap:butt;stroke-linejoin:miter;stroke-opacity:1"
       d="m 520.00452,469.09449 0,25.2498"
       id="path5377-5-44-5-8-5-3-0-5"
       inkscape:connector-curvature="0" />
    <path
       style="fill:none;stroke:#000000;stroke-width:0.99999863px;stroke-linecap:butt;stroke-linejoin:miter;stroke-opacity:1"
       d="m 344.99996,469.17039 0,25.0839"
       id="path5377-58-8-0-3-4-3-3-8"
       inkscape:connector-curvature="0" />
    <path
       style="fill:none;stroke:#000000;stroke-width:0.99999863px;stroke-linecap:butt;stroke-linejoin:miter;stroke-opacity:1"
       d="m 445.00454,469.17039 0,25.084"
       id="path5377-58-8-0-3-4-3-3-2-6"
       inkscape:connector-curvature="0" />
    <g
       id="g17765-1-5-9-2-0-4"
       transform="translate(-182.49542,-20.244595)">
      <path
         sodipodi:nodetypes="czcczcc"
         inkscape:connector-curvature="0"
         id="path15885-3-5-4-2-5-4-9-2"
         d="m 658.5,526.23714 c 0,0 -9.25,-6.84884 0,-21.89825 9.25,-15.04942 0,-24.60175 0,-24.60175 l 9,0.25 c 0,0 9.25,9.55233 0,24.60175 -9.25,15.04941 0,21.89825 0,21.89825 z"
         style="fill:#ffffff;fill-opacity:1;stroke:none" />
      <path
         sodipodi:nodetypes="czc"
         inkscape:connector-curvature="0"
         id="path15885-8-9-7-7-9-6-7"
         d="m 658.5,479.73714 c 0,0 9.25,9.55233 0,24.60175 -9.25,15.04941 0,21.89825 0,21.89825"
         style="fill:none;stroke:#000000;stroke-width:1px;stroke-linecap:butt;stroke-linejoin:miter;stroke-opacity:1" />
      <path
         sodipodi:nodetypes="czc"
         inkscape:connector-curvature="0"
         id="path15885-7-3-4-4-4-9-6-2"
         d="m 667.5,479.98714 c 0,0 9.25,9.55233 0,24.60175 -9.25,15.04941 0,21.89825 0,21.89825"
         style="fill:none;stroke:#000000;stroke-width:1px;stroke-linecap:butt;stroke-linejoin:miter;stroke-opacity:1" />
    </g>
    <g
       id="g17765-1-5-4-5-9"
       transform="translate(-282.49542,-20.244595)">
      <path
         sodipodi:nodetypes="czcczcc"
         inkscape:connector-curvature="0"
         id="path15885-3-5-4-2-6-8-8"
         d="m 658.5,526.23714 c 0,0 -9.25,-6.84884 0,-21.89825 9.25,-15.04942 0,-24.60175 0,-24.60175 l 9,0.25 c 0,0 9.25,9.55233 0,24.60175 -9.25,15.04941 0,21.89825 0,21.89825 z"
         style="fill:#ffffff;fill-opacity:1;stroke:none" />
      <path
         sodipodi:nodetypes="czc"
         inkscape:connector-curvature="0"
         id="path15885-8-9-7-5-2-8"
         d="m 658.5,479.73714 c 0,0 9.25,9.55233 0,24.60175 -9.25,15.04941 0,21.89825 0,21.89825"
         style="fill:none;stroke:#000000;stroke-width:1px;stroke-linecap:butt;stroke-linejoin:miter;stroke-opacity:1" />
      <path
         sodipodi:nodetypes="czc"
         inkscape:connector-curvature="0"
         id="path15885-7-3-4-4-2-6-2"
         d="m 667.5,479.98714 c 0,0 9.25,9.55233 0,24.60175 -9.25,15.04941 0,21.89825 0,21.89825"
         style="fill:none;stroke:#000000;stroke-width:1px;stroke-linecap:butt;stroke-linejoin:miter;stroke-opacity:1" />
    </g>
    <g
       id="g17765-1-8-3-9"
       transform="translate(-407.49542,-20.244595)">
      <path
         sodipodi:nodetypes="czcczcc"
         inkscape:connector-curvature="0"
         id="path15885-3-5-4-6-7-8"
         d="m 658.5,526.23714 c 0,0 -9.25,-6.84884 0,-21.89825 9.25,-15.04942 0,-24.60175 0,-24.60175 l 9,0.25 c 0,0 9.25,9.55233 0,24.60175 -9.25,15.04941 0,21.89825 0,21.89825 z"
         style="fill:#ffffff;fill-opacity:1;stroke:none" />
      <path
         sodipodi:nodetypes="czc"
         inkscape:connector-curvature="0"
         id="path15885-8-9-8-4-3"
         d="m 658.5,479.73714 c 0,0 9.25,9.55233 0,24.60175 -9.25,15.04941 0,21.89825 0,21.89825"
         style="fill:none;stroke:#000000;stroke-width:1px;stroke-linecap:butt;stroke-linejoin:miter;stroke-opacity:1" />
      <path
         sodipodi:nodetypes="czc"
         inkscape:connector-curvature="0"
         id="path15885-7-3-4-0-6-1"
         d="m 667.5,479.98714 c 0,0 9.25,9.55233 0,24.60175 -9.25,15.04941 0,21.89825 0,21.89825"
         style="fill:none;stroke:#000000;stroke-width:1px;stroke-linecap:butt;stroke-linejoin:miter;stroke-opacity:1" />
    </g>
    <path
       style="fill:none;stroke:#000000;stroke-width:0.99921262000000000;stroke-linecap:butt;stroke-linejoin:miter;stroke-miterlimit:4;stroke-opacity:1;stroke-dasharray:none;marker-start:none;marker-end:url(#Arrow1Lend)"
       d="m 330,244.09448 c 0,5 0,25 0,25 0,15 -10.00001,30 -25.00001,30 -16.3751,0 -67.83426,0 -84.99999,0 -15,0 -25,10 -25,25 0,25 0,-15 0,20 0,5 0,20 25,20"
       id="path5769"
       inkscape:connector-curvature="0"
       sodipodi:nodetypes="csssssc" />
    <path
       style="fill:none;stroke:#000000;stroke-width:0.99999863px;stroke-linecap:butt;stroke-linejoin:miter;stroke-opacity:1"
       d="m 519.99995,218.67077 0,25.084"
       id="path5377-58-8-0-3-4-3-3-2-6-5"
       inkscape:connector-curvature="0" />
    <g
       id="g17765-1-5-9-2-0-4-5"
       transform="translate(-107.50001,-270.74422)">
      <path
         sodipodi:nodetypes="czcczcc"
         inkscape:connector-curvature="0"
         id="path15885-3-5-4-2-5-4-9-2-1"
         d="m 658.5,526.23714 c 0,0 -9.25,-6.84884 0,-21.89825 9.25,-15.04942 0,-24.60175 0,-24.60175 l 9,0.25 c 0,0 9.25,9.55233 0,24.60175 -9.25,15.04941 0,21.89825 0,21.89825 z"
         style="fill:#ffffff;fill-opacity:1;stroke:none" />
      <path
         sodipodi:nodetypes="czc"
         inkscape:connector-curvature="0"
         id="path15885-8-9-7-7-9-6-7-3"
         d="m 658.5,479.73714 c 0,0 9.25,9.55233 0,24.60175 -9.25,15.04941 0,21.89825 0,21.89825"
         style="fill:none;stroke:#000000;stroke-width:1px;stroke-linecap:butt;stroke-linejoin:miter;stroke-opacity:1" />
      <path
         sodipodi:nodetypes="czc"
         inkscape:connector-curvature="0"
         id="path15885-7-3-4-4-4-9-6-2-2"
         d="m 667.5,479.98714 c 0,0 9.25,9.55233 0,24.60175 -9.25,15.04941 0,21.89825 0,21.89825"
         style="fill:none;stroke:#000000;stroke-width:1px;stroke-linecap:butt;stroke-linejoin:miter;stroke-opacity:1" />
    </g>
    <text
       xml:space="preserve"
       style="font-size:40px;font-style:normal;font-weight:normal;line-height:125%;letter-spacing:0px;word-spacing:0px;fill:#000000;fill-opacity:1;stroke:none;font-family:Sans"
       x="510"
       y="268.84467"
       id="text8689"
       sodipodi:linespacing="125%"><tspan
         sodipodi:role="line"
         id="tspan8691"
         x="510"
         y="268.84467"
         style="font-size:16px;font-style:normal;font-variant:normal;font-weight:bold;font-stretch:normal;font-family:FreeMono;-inkscape-font-specification:FreeMono Bold">tupleDesc</tspan></text>
    <text
       xml:space="preserve"
       style="font-size:40px;font-style:normal;font-weight:normal;line-height:125%;letter-spacing:0px;word-spacing:0px;fill:#000000;fill-opacity:1;stroke:none;font-family:Sans"
       x="356.93863"
       y="519.3443"
       id="text8689-5"
       sodipodi:linespacing="125%"><tspan
         sodipodi:role="line"
         id="tspan8691-6"
         x="356.93863"
         y="519.3443"
         style="font-size:16px;font-style:normal;font-variant:normal;font-weight:bold;font-stretch:normal;font-family:FreeMono;-inkscape-font-specification:FreeMono Bold">Form_pg_attribute </tspan></text>
    <text
       xml:space="preserve"
       style="font-size:40px;font-style:normal;font-weight:normal;line-height:125%;letter-spacing:0px;word-spacing:0px;fill:#000000;fill-opacity:1;stroke:none;font-family:Sans"
       x="395"
       y="278.84467"
       id="text8689-8"
       sodipodi:linespacing="125%"><tspan
         sodipodi:role="line"
         id="tspan8691-9"
         x="395"
         y="278.84467"
         style="font-size:12px;font-style:normal;font-variant:normal;font-weight:normal;font-stretch:normal;font-family:FreeMono;-inkscape-font-specification:FreeMono">src/include/access/tupdesc.h</tspan></text>
    <text
       xml:space="preserve"
       style="font-size:40px;font-style:normal;font-weight:normal;line-height:125%;letter-spacing:0px;word-spacing:0px;fill:#000000;fill-opacity:1;stroke:none;font-family:Sans"
       x="275.89719"
       y="532.24396"
       id="text8689-8-0"
       sodipodi:linespacing="125%"><tspan
         sodipodi:role="line"
         id="tspan8691-9-5"
         x="275.89719"
         y="532.24396"
         style="font-size:12px;font-style:normal;font-variant:normal;font-weight:normal;font-stretch:normal;font-family:FreeMono;-inkscape-font-specification:FreeMono">src/include/catalog/pg_attribute.h</tspan></text>
    <flowRoot
       xml:space="preserve"
       id="flowRoot9808"
       style="fill:black;stroke:none;stroke-opacity:1;stroke-width:1px;stroke-linejoin:miter;stroke-linecap:butt;fill-opacity:1;font-family:Sans;font-style:normal;font-weight:normal;font-size:40px;line-height:125%;letter-spacing:0px;word-spacing:0px"><flowRegion
         id="flowRegion9810"><rect
           id="rect9812"
           width="192.99905"
           height="228.01576"
           x="639.25848"
           y="102.39298" /></flowRegion><flowPara
         id="flowPara9814"></flowPara></flowRoot>  </g>
</svg>
